<svg width="56" height="56" viewBox="0 0 56 56" fill="none" xmlns="http://www.w3.org/2000/svg">
<g id="Cart Icon">
<circle id="Ellipse 59" cx="28" cy="28" r="28" fill="#274C5B"/>
<g id="Icon">
<path id="Vector" d="M24.7778 39.0001C25.4528 39.0001 26 38.4529 26 37.7779C26 37.1029 25.4528 36.5557 24.7778 36.5557C24.1027 36.5557 23.5555 37.1029 23.5555 37.7779C23.5555 38.4529 24.1027 39.0001 24.7778 39.0001Z" fill="white" stroke="white" stroke-width="1.5" stroke-linecap="round" stroke-linejoin="round"/>
<path id="Vector_2" d="M33.3333 39.0001C34.0083 39.0001 34.5555 38.4529 34.5555 37.7779C34.5555 37.1029 34.0083 36.5557 33.3333 36.5557C32.6583 36.5557 32.1111 37.1029 32.1111 37.7779C32.1111 38.4529 32.6583 39.0001 33.3333 39.0001Z" fill="white" stroke="white" stroke-width="1.5" stroke-linecap="round" stroke-linejoin="round"/>
<path id="Vector_3" d="M15 17H18.7819L21.6183 33.0731H36.7459" stroke="white" stroke-width="2" stroke-linecap="round" stroke-linejoin="round"/>
<path id="Vector_4" d="M21.1111 29.1837L36.3583 29.2907C36.4676 29.2908 36.5736 29.2529 36.6582 29.1837C36.7428 29.1144 36.8007 29.0179 36.8222 28.9107L38.524 20.4014C38.5378 20.3328 38.5361 20.262 38.5191 20.1941C38.5022 20.1262 38.4704 20.063 38.426 20.0089C38.3816 19.9548 38.3258 19.9112 38.2625 19.8813C38.1992 19.8514 38.1301 19.8359 38.0601 19.8359L19.5673 19.8359" stroke="white" stroke-width="2" stroke-linecap="round" stroke-linejoin="round"/>
</g>
</g>
</svg>
