<svg width="14" height="14" viewBox="0 0 14 14" fill="none" xmlns="http://www.w3.org/2000/svg">
<path d="M6.05215 1.09367C6.35975 0.189974 7.63787 0.189977 7.94547 1.09367L8.92899 3.98313C9.06694 4.3884 9.44755 4.66091 9.87565 4.66091H12.9559C13.9358 4.66091 14.331 5.92416 13.5258 6.48263L11.115 8.15456C10.7481 8.40901 10.5944 8.87584 10.7382 9.29851L11.6777 12.0586C11.9886 12.9718 10.9538 13.7523 10.1612 13.2025L7.5687 11.4046C7.22595 11.1668 6.77166 11.1668 6.42891 11.4046L3.83644 13.2025C3.04377 13.7523 2.00905 12.9718 2.31988 12.0586L3.25936 9.29851C3.40323 8.87584 3.24948 8.40901 2.88259 8.15456L0.471857 6.48263C-0.33338 5.92416 0.0618064 4.66091 1.04175 4.66091H4.12196C4.55006 4.66091 4.93068 4.3884 5.06862 3.98313L6.05215 1.09367Z" fill="#FFA858"/>
</svg>
